<?xml version="1.0" standalone="no"?>
<!DOCTYPE svg PUBLIC "-//W3C//DTD SVG 20010904//EN"
 "http://www.w3.org/TR/2001/REC-SVG-20010904/DTD/svg10.dtd">
<svg version="1.0" xmlns="http://www.w3.org/2000/svg"
 width="667.000000pt" height="667.000000pt" viewBox="0 0 667.000000 667.000000"
 preserveAspectRatio="xMidYMid meet">

<g transform="translate(0.000000,667.000000) scale(0.100000,-0.100000)"
fill="#000000" stroke="none">
<path d="M0 3335 l0 -3335 3335 0 3335 0 0 3335 0 3335 -3335 0 -3335 0 0
-3335z m2474 563 c3 -13 6 -80 6 -149 0 -69 3 -153 6 -186 l7 -61 31 36 c17
19 49 43 71 53 48 22 137 25 191 5 23 -8 47 -10 59 -5 11 4 53 8 93 8 l72 1 0
-230 0 -230 -75 0 c-41 0 -83 5 -93 11 -14 9 -25 8 -50 -5 -87 -45 -179 -29
-258 46 l-54 51 0 -52 0 -51 -85 0 -85 0 0 390 0 390 79 0 c73 0 79 -2 85 -22z
m724 -150 c3 -179 3 -181 52 -153 36 21 146 19 196 -4 22 -10 57 -38 77 -61
l37 -43 48 45 c74 70 102 81 191 76 95 -4 161 -34 202 -91 l29 -40 0 222 0
222 83 -3 82 -3 3 -387 2 -388 -75 0 c-41 0 -78 0 -82 0 -5 0 -9 18 -11 40
l-3 41 -39 -31 c-50 -40 -96 -58 -164 -66 -81 -10 -134 9 -208 73 l-63 54 -15
-23 c-39 -60 -96 -93 -180 -104 -42 -5 -58 -2 -105 21 -50 24 -58 25 -68 12
-9 -11 -33 -17 -82 -18 l-70 -3 -3 393 -2 392 82 -3 83 -3 3 -167z m1002 -995
l0 -358 28 41 27 42 45 -24 c46 -25 67 -29 94 -18 35 14 16 42 -53 78 -91 47
-111 73 -111 141 0 63 24 99 84 126 71 32 238 20 253 -18 3 -8 -1 -30 -10 -49
l-17 -34 -80 0 c-108 0 -107 -17 4 -70 95 -45 115 -69 123 -144 5 -46 2 -55
-23 -85 -41 -49 -96 -71 -181 -71 -40 0 -92 7 -116 15 -32 11 -52 12 -78 5
-38 -11 -109 -13 -133 -4 -9 3 -16 12 -16 20 0 18 -1 18 -56 -11 -99 -53 -218
-21 -291 77 l-23 32 0 -62 0 -62 -79 0 -78 0 -5 144 c-3 113 -8 149 -21 170
-31 47 -103 47 -133 0 -13 -20 -18 -56 -21 -167 l-3 -142 -85 -3 -85 -3 0 236
0 235 68 0 c39 0 79 -6 95 -15 26 -13 32 -13 60 2 21 11 55 17 97 18 76 0 125
-24 170 -86 l27 -38 24 37 c32 48 92 81 166 88 52 6 69 3 117 -19 l56 -26 0
180 0 179 80 0 80 0 0 -357z m-1066 286 c31 -36 33 -63 8 -104 -28 -45 -64
-61 -102 -45 -106 44 -87 180 26 180 35 0 47 -5 68 -31z m-579 -258 c22 -10
46 -25 54 -34 19 -23 34 -21 61 8 62 66 218 53 267 -22 15 -23 19 -57 21 -220
l4 -193 -80 0 -80 0 -4 156 c-3 150 -4 157 -27 175 -30 25 -73 24 -96 -1 -16
-17 -19 -44 -23 -175 l-5 -155 -82 0 -83 0 -4 156 c-3 150 -4 157 -27 175 -30
25 -73 24 -96 -1 -16 -17 -19 -44 -23 -175 l-5 -155 -83 0 -84 0 0 236 0 236
80 -4 c56 -2 84 -8 90 -17 7 -12 16 -11 57 7 59 26 115 27 168 3z m595 -226
l0 -235 -89 0 -89 0 -1 226 c-1 124 2 230 5 235 3 5 43 9 90 9 l84 0 0 -235z"/>
<path d="M2676 3454 c-30 -29 -38 -56 -31 -100 7 -52 33 -80 81 -89 69 -12
137 62 120 130 -12 49 -49 75 -105 75 -32 0 -55 -6 -65 -16z"/>
<path d="M3765 3496 c-17 -7 -36 -20 -43 -28 -11 -14 -4 -17 57 -23 38 -4 77
-3 86 2 15 9 15 11 -2 31 -24 28 -61 35 -98 18z"/>
<path d="M3249 3457 c-65 -44 -74 -110 -21 -159 34 -32 71 -41 110 -27 40 14
62 49 62 96 0 45 -20 77 -60 98 -39 20 -51 19 -91 -8z"/>
<path d="M3723 3343 c-22 -8 -14 -40 13 -62 33 -26 102 -28 151 -4 33 15 38
15 82 0 25 -10 49 -17 54 -17 4 0 7 20 7 45 l0 45 -147 -1 c-82 0 -154 -3
-160 -6z"/>
<path d="M3883 2645 c-39 -17 -53 -42 -53 -95 0 -34 6 -47 32 -72 29 -27 38
-30 77 -25 103 12 134 135 47 188 -36 22 -60 23 -103 4z"/>
</g>
</svg>
